#!OML:ASF F:\VICON\USERDATA\INSTALL\rory3\rory3.ASF
:FULLY-SPECIFIED
:DEGREES
1063
root -1.54393 29.8125 -10.8258 360.184 -15.5048 2.24195
lowerback 7.08967 0.808496 -4.85066
upperback 2.06087 0.698386 -1.04859
thorax -1.8883 0.351951 1.58068
lowerneck -1.99711 3.03753 -5.9853
upperneck 31.5039 4.10044 2.88129
head 10.1561 1.43674 2.41984
rclavicle -1.23246e-014 3.18055e-015
rhumerus -32.4714 -7.64029 -76.893
rradius 24.2765
rwrist 17.4681
rhand -27.4907 3.09894
rfingers 7.12502
rthumb -0.894051 -26.8789
lclavicle -1.23246e-014 3.18055e-015
lhumerus -22.2773 13.1642 76.6927
lradius 20.2928
lwrist -5.67371
lhand -26.3122 22.0406
lfingers 7.12502
lthumb 0.244232 52.0202
rfemur -16.8364 11.1522 19.1175
rtibia 38.8885
rfoot -23.1612 -8.307
rtoes -8.0754
lfemur -11.0513 -0.923124 -24.5779
ltibia 26.6095
lfoot -18.1615 13.8233
ltoes 2.50347
1064
root -1.54698 29.812 -10.8066 360.303 -15.0387 2.2311
lowerback 7.09349 0.75796 -4.81779
upperback 2.06874 0.635248 -0.995848
thorax -1.87856 0.320285 1.62228
lowerneck -1.77046 3.01543 -6.06176
upperneck 31.2876 4.09013 2.78535
head 10.0344 1.42116 2.3872
rclavicle 2.98177e-016 -7.95139e-016
rhumerus -32.5218 -7.64545 -76.862
rradius 24.0841
rwrist 17.4856
rhand -27.3732 3.08486
rfingers 7.12502
rthumb -0.780516 -26.8935
lclavicle 2.98177e-016 -7.95139e-016
lhumerus -22.2144 12.9916 76.8863
lradius 20.6621
lwrist -5.445
lhand -26.2899 21.5227
lfingers 7.12502
lthumb 0.265773 51.5023
rfemur -16.9752 11.0095 19.269
rtibia 38.6823
rfoot -23.21 -7.50048
rtoes -8.61469
lfemur -11.1737 -0.937575 -24.5689
ltibia 26.6872
lfoot -17.9835 13.5297
ltoes 2.32424
1065
root -1.55055 29.8107 -10.7883 360.37 -14.6276 2.27346
lowerback 7.11454 0.732298 -4.82231
upperback 2.12399 0.602656 -0.951392
thorax -1.83151 0.30225 1.67371
lowerneck -1.67261 2.99384 -6.24881
upperneck 31.1801 4.0728 2.80347
head 9.97272 1.39915 2.41969
rclavicle 3.6477e-014 1.74931e-014
rhumerus -32.4669 -7.5257 -76.8566
rradius 23.9049
rwrist 17.2652
rhand -26.8916 3.47201
rfingers 7.12502
rthumb -0.315387 -26.5075
lclavicle 3.6477e-014 1.74931e-014
lhumerus -22.0071 13.0236 77.0812
lradius 20.8201
lwrist -5.47603
lhand -26.2159 21.158
lfingers 7.12502
lthumb 0.337229 51.1375
rfemur -17.0794 10.9208 19.3573
rtibia 38.4794
rfoot -23.2807 -6.66391
rtoes -8.74292
lfemur -11.2762 -0.87119 -24.6162
ltibia 26.78
lfoot -17.7652 13.2487
ltoes 2.14926
1066
root -1.55696 29.808 -10.7709 360.487 -14.2558 2.18046
lowerback 7.12184 0.731929 -4.70908
upperback 2.19175 0.61322 -0.905245
thorax -1.7657 0.305036 1.65735
lowerneck -1.59717 2.91816 -6.23684
upperneck 31.0894 3.99386 2.68767
head 9.9332 1.35645 2.36676
rclavicle -9.64106e-015 -7.15625e-015
rhumerus -32.4212 -7.43478 -76.8818
rradius 23.8427
rwrist 17.1121
rhand -26.3861 3.59271
rfingers 7.12502
rthumb 0.172801 -26.387
lclavicle -9.64106e-015 -7.15625e-015
lhumerus -21.7271 12.7811 77.2854
lradius 20.9674
lwrist -5.24914
lhand -26.0568 21.2265
lfingers 7.12502
lthumb 0.490873 51.2057
rfemur -17.2113 11.0505 19.5952
rtibia 38.2616
rfoot -23.3946 -5.99633
rtoes -8.75774
lfemur -11.4064 -0.864943 -24.5066
ltibia 26.8872
lfoot -17.6237 12.9972
ltoes 1.90567
1067
root -1.56461 29.8064 -10.7525 360.656 -13.8377 2.03691
lowerback 7.07241 0.703779 -4.54424
upperback 2.24073 0.593511 -0.846536
thorax -1.68563 0.292911 1.62804
lowerneck -1.51425 2.84718 -6.24663
upperneck 31.0255 3.90959 2.62171
head 9.90031 1.31314 2.3354
rclavicle 1.14301e-014 -4.37326e-015
rhumerus -32.2915 -7.47656 -76.8543
rradius 23.6266
rwrist 17.2412
rhand -26.1434 3.57859
rfingers 7.12502
rthumb 0.40722 -26.4008
lclavicle 1.14301e-014 -4.37326e-015
lhumerus -21.5749 12.2706 77.5116
lradius 21.3277
lwrist -4.86604
lhand -25.9343 21.4533
lfingers 7.12502
lthumb 0.609223 51.4322
rfemur -17.3612 11.2392 19.8889
rtibia 38.046
rfoot -23.5626 -5.45757
rtoes -8.41132
lfemur -11.5664 -1.03378 -24.3419
ltibia 27.0003
lfoot -17.564 12.827
ltoes 1.56785
1068
root -1.57 29.8062 -10.7297 360.778 -13.3658 2.02348
lowerback 6.99033 0.640907 -4.43587
upperback 2.30552 0.524315 -0.854326
thorax -1.568 0.255349 1.56615
lowerneck -1.50471 2.84184 -6.20223
upperneck 31.0594 3.90432 2.60773
head 9.91273 1.31485 2.32333
rclavicle -1.88348e-014 1.94809e-014
rhumerus -32.0984 -7.69004 -76.8434
rradius 23.2871
rwrist 17.5594
rhand -26.1959 4.41775
rfingers 7.12502
rthumb 0.35654 -25.5617
lclavicle -1.88348e-014 1.94809e-014
lhumerus -21.4588 11.7498 77.6833
lradius 21.7836
lwrist -4.55004
lhand -25.6714 21.924
lfingers 7.12502
lthumb 0.863153 51.902
rfemur -17.4408 11.2439 20.0381
rtibia 37.8582
rfoot -23.8082 -5.03872
rtoes -8.25932
lfemur -11.6606 -1.25765 -24.3297
ltibia 27.0883
lfoot -17.5426 12.6095
ltoes 1.86238
1069
root -1.58274 29.8025 -10.7066 360.821 -13.0723 2.03126
lowerback 6.93371 0.63944 -4.45636
upperback 2.3766 0.526893 -0.83575
thorax -1.46355 0.253526 1.59735
lowerneck -1.38142 2.8666 -6.16516
upperneck 31.018 3.9436 2.55294
head 9.87483 1.33419 2.29706
rclavicle 1.43125e-014 1.11319e-014
rhumerus -32.0248 -7.56717 -76.9283
rradius 23.1185
rwrist 17.589
rhand -26.3205 5.40173
rfingers 7.12502
rthumb 0.236172 -24.5779
lclavicle 1.43125e-014 1.11319e-014
lhumerus -21.407 11.365 77.8277
lradius 22.2291
lwrist -4.2308
lhand -25.2689 22.5717
lfingers 7.12502
lthumb 1.25184 52.5478
rfemur -17.4846 11.5034 20.2131
rtibia 37.7148
rfoot -24.0699 -5.06765
rtoes -8.23879
lfemur -11.668 -1.29845 -24.3108
ltibia 27.1306
lfoot -17.5018 12.4076
ltoes 2.15853
1070
root -1.5937 29.7984 -10.6844 360.802 -12.8498 2.16837
lowerback 6.97146 0.64793 -4.60486
upperback 2.41921 0.527396 -0.832955
thorax -1.44148 0.25239 1.68328
lowerneck -1.18272 2.87085 -6.22745
upperneck 30.9029 3.96127 2.48356
head 9.79549 1.33282 2.27755
rclavicle 1.92821e-014 0
rhumerus -31.9748 -7.25539 -77.0192
rradius 23.0172
rwrist 17.5912
rhand -26.3575 5.49141
rfingers 7.12502
rthumb 0.200502 -24.4882
lclavicle 1.92821e-014 0
lhumerus -21.4847 11.0314 77.9637
lradius 22.7309
lwrist -3.83139
lhand -25.2453 22.5599
lfingers 7.12502
lthumb 1.27461 52.5358
rfemur -17.5405 11.7761 20.2335
rtibia 37.6243
rfoot -24.3383 -5.25239
rtoes -7.94345
lfemur -11.5838 -1.19465 -24.4382
ltibia 27.058
lfoot -17.4207 12.1384
ltoes 2.51941
1071
root -1.6015 29.7961 -10.6639 360.79 -12.6259 2.33577
lowerback 7.09465 0.674746 -4.76752
upperback 2.44002 0.545197 -0.835454
thorax -1.49052 0.261603 1.76949
lowerneck -1.13526 2.85981 -6.32646
upperneck 30.9425 3.96543 2.45292
head 9.80105 1.321 2.28435
rclavicle 1.49089e-014 2.14687e-014
rhumerus -31.9096 -6.9299 -77.1195
rradius 22.9796
rwrist 17.5872
rhand -26.5612 5.27695
rfingers 7.12502
rthumb 0.00372464 -24.7028
lclavicle 1.49089e-014 2.14687e-014
lhumerus -21.5413 10.551 78.16
lradius 23.2031
lwrist -3.38995
lhand -25.6087 22.1459
lfingers 7.12502
lthumb 0.923676 52.1237
rfemur -17.5999 11.9796 20.208
rtibia 37.5421
rfoot -24.5611 -5.47177
rtoes -7.46888
lfemur -11.5019 -1.05027 -24.6049
ltibia 26.9534
lfoot -17.2876 11.8807
ltoes 2.35043
1072
root -1.58989 29.7931 -10.6416 360.724 -12.0567 2.70842
lowerback 7.27341 0.578736 -4.76976
upperback 2.46619 0.404321 -0.995373
thorax -1.55237 0.192645 1.61653
lowerneck -1.04636 2.86796 -6.29953
upperneck 31.0213 3.95358 2.51782
head 9.81251 1.32443 2.30184
rclavicle 2.0276e-014 -6.36111e-015
rhumerus -31.8446 -6.92749 -77.1901
rradius 22.9197
rwrist 17.7947
rhand -26.3357 5.06209
rfingers 7.12502
rthumb 0.221477 -24.9175
lclavicle 2.0276e-014 -6.36111e-015
lhumerus -21.4793 9.90311 78.282
lradius 23.5127
lwrist -2.9445
lhand -25.5706 21.7155
lfingers 7.12502
lthumb 0.960473 51.6931
rfemur -17.5706 11.5196 19.8622
rtibia 37.4665
rfoot -24.8177 -5.33331
rtoes -7.12618
lfemur -11.3378 -1.1296 -25.0748
ltibia 26.8014
lfoot -17.0774 11.5033
ltoes 2.35507
1073
root -1.59098 29.79 -10.6145 360.749 -11.6849 2.88759
lowerback 7.24 0.555555 -4.70071
upperback 2.49937 0.380091 -1.07667
thorax -1.49723 0.179327 1.49636
lowerneck -0.961778 2.86455 -6.24067
upperneck 31.1377 3.92543 2.57394
head 9.8405 1.32214 2.31063
rclavicle 4.02539e-015 8.15017e-015
rhumerus -31.9661 -6.84681 -77.2042
rradius 23.049
rwrist 17.8654
rhand -25.8335 4.54189
rfingers 7.12502
rthumb 0.706556 -25.4367
lclavicle 4.02539e-015 8.15017e-015
lhumerus -21.4437 9.17761 78.4084
lradius 23.8189
lwrist -2.42865
lhand -25.4027 21.3656
lfingers 7.12502
lthumb 1.12262 51.3424
rfemur -17.6065 11.4432 19.7679
rtibia 37.3586
rfoot -25.0423 -5.59849
rtoes -7.11012
lfemur -11.2489 -1.25019 -25.2926
ltibia 26.6954
lfoot -16.9659 11.3049
ltoes 2.53372
1074
root -1.59753 29.7859 -10.5872 360.743 -11.4828 3.0862
lowerback 7.22283 0.585274 -4.70761
upperback 2.52752 0.419408 -1.16192
thorax -1.46042 0.197962 1.40914
lowerneck -0.885742 2.8454 -6.18748
upperneck 31.2463 3.8884 2.58494
head 9.86929 1.31054 2.30382
rclavicle 1.42131e-014 -1.53064e-014
rhumerus -32.0788 -6.70917 -77.2648
rradius 23.1811
rwrist 17.8471
rhand -26.0536 4.50732
rfingers 7.12502
rthumb 0.49398 -25.4719
lclavicle 1.42131e-014 -1.53064e-014
lhumerus -21.5057 8.52049 78.5165
lradius 24.2398
lwrist -1.85736
lhand -25.2701 21.5928
lfingers 7.12502
lthumb 1.25066 51.5688
rfemur -17.6273 11.6074 19.6686
rtibia 37.2111
rfoot -25.1637 -5.83127
rtoes -6.66036
lfemur -11.1789 -1.20344 -25.513
ltibia 26.6855
lfoot -16.8909 11.1494
ltoes 2.20757
1075
root -1.61597 29.7819 -10.5618 360.818 -11.4251 3.09724
lowerback 7.1686 0.602224 -4.78806
upperback 2.53615 0.440911 -1.12106
thorax -1.42332 0.207531 1.4949
lowerneck -0.792192 2.87523 -6.15045
upperneck 31.3461 3.94941 2.48281
head 9.8908 1.33014 2.26646
rclavicle 2.12948e-014 -7.95139e-016
rhumerus -31.6752 -6.84723 -77.3001
rradius 22.8577
rwrist 18.2585
rhand -26.3023 4.4767
rfingers 7.12502
rthumb 0.253734 -25.5029
lclavicle 2.12948e-014 -7.95139e-016
lhumerus -21.703 8.0487 78.596
lradius 24.7531
lwrist -1.31609
lhand -24.9143 22.0789
lfingers 7.12502
lthumb 1.59435 52.0527
rfemur -17.7204 12.1387 19.8131
rtibia 37.0336
rfoot -25.1487 -6.1751
rtoes -6.20643
lfemur -11.2439 -1.0924 -25.4678
ltibia 26.7693
lfoot -16.8168 10.9848
ltoes 1.95121
1076
root -1.65318 29.7766 -10.5331 360.972 -11.5745 2.86129
lowerback 7.03248 0.688222 -4.90551
upperback 2.48388 0.55781 -0.925877
thorax -1.41151 0.265686 1.75307
lowerneck -0.711127 2.91218 -6.0867
upperneck 31.5512 4.04685 2.28363
head 9.95697 1.35652 2.19576
rclavicle 4.22417e-016 -2.40529e-014
rhumerus -31.3723 -6.95776 -77.2573
rradius 22.5347
rwrist 18.6432
rhand -26.3872 4.42223
rfingers 7.12502
rthumb 0.171809 -25.5574
lclavicle 4.22417e-016 -2.40529e-014
lhumerus -22.0483 7.82333 78.6597
lradius 25.2295
lwrist -1.14096
lhand -24.5446 22.1587
lfingers 7.12502
lthumb 1.9514 52.1295
rfemur -17.8657 13.1432 20.2867
rtibia 36.8264
rfoot -25.1072 -6.73779
rtoes -5.77178
lfemur -11.3954 -0.862286 -25.0701
ltibia 26.9085
lfoot -16.8511 10.7792
ltoes 2.52821
1077
root -1.66459 29.7709 -10.5025 361.05 -11.4249 2.93476
lowerback 6.92014 0.712921 -4.84375
upperback 2.43982 0.600472 -0.929105
thorax -1.39704 0.287653 1.71236
lowerneck -0.556215 2.88707 -6.01223
upperneck 31.7037 4.03235 2.15388
head 9.99256 1.34201 2.1363
rclavicle -1.09083e-014 -1.51076e-014
rhumerus -31.5852 -6.72551 -77.232
rradius 22.844
rwrist 18.6968
rhand -27.1723 5.81608
rfingers 7.12502
rthumb -0.58652 -24.1629
lclavicle -1.09083e-014 -1.51076e-014
lhumerus -22.231 7.53255 78.7507
lradius 25.5576
lwrist -1.04405
lhand -24.3982 22.2358
lfingers 7.12502
lthumb 2.09282 52.2053
rfemur -17.9266 13.4008 20.3036
rtibia 36.6175
rfoot -24.8852 -6.8461
rtoes -5.16481
lfemur -11.4635 -0.753434 -25.1261
ltibia 27.047
lfoot -16.8748 10.4756
ltoes 2.67352
